<svg id="svg" version="1.1" xmlns="http://www.w3.org/2000/svg" xmlns:xlink="http://www.w3.org/1999/xlink" width="400" height="83.6" viewBox="0, 0, 400,83.6"><g id="svgg"><path id="path0" d="M133.477 4.656 C 132.947 5.186,133.150 65.922,133.683 66.251 C 134.535 66.778,136.043 66.794,135.730 66.273 C 135.567 66.002,135.734 66.034,136.123 66.349 C 136.697 66.814,136.903 66.814,137.477 66.349 C 137.849 66.047,138.036 65.996,137.893 66.236 C 137.720 66.524,138.220 66.665,139.371 66.651 C 140.619 66.636,141.054 66.485,140.912 66.115 C 140.800 65.822,141.002 65.600,141.381 65.600 C 141.798 65.600,141.942 65.413,141.765 65.100 C 141.539 64.700,141.590 64.700,142.021 65.100 C 143.616 66.581,143.600 66.894,143.600 35.000 C 143.600 18.170,143.470 4.400,143.312 4.400 C 143.153 4.400,141.983 5.429,140.712 6.687 L 138.400 8.975 136.077 6.677 C 134.800 5.413,133.630 4.503,133.477 4.656 M196.279 4.655 C 195.505 5.429,195.980 65.212,196.767 66.057 C 197.931 67.306,222.864 66.997,227.720 65.673 C 237.593 62.981,243.957 56.109,247.095 44.752 C 248.181 40.822,248.047 29.354,246.866 25.036 C 245.545 20.209,241.916 13.200,240.737 13.200 C 240.526 13.200,240.451 13.359,240.571 13.553 C 240.691 13.747,240.420 14.375,239.969 14.949 C 239.517 15.523,239.240 16.142,239.354 16.325 C 239.467 16.508,239.214 16.953,238.793 17.314 C 238.065 17.936,237.929 17.867,236.134 15.971 C 230.879 10.421,226.488 8.969,213.742 8.569 C 207.901 8.386,207.034 8.447,204.773 9.209 L 202.271 10.052 199.414 7.214 C 197.843 5.653,196.432 4.502,196.279 4.655 M345.809 5.235 C 345.677 5.766,345.621 8.625,345.685 11.588 L 345.800 16.977 348.394 18.227 L 350.987 19.477 353.194 18.429 C 354.407 17.853,355.625 17.240,355.900 17.067 C 356.477 16.705,356.636 4.993,356.069 4.643 C 355.887 4.530,354.677 5.510,353.380 6.820 L 351.023 9.202 348.536 6.736 C 346.157 4.378,346.037 4.313,345.809 5.235 M48.488 10.407 C 43.390 11.743,39.753 13.958,35.413 18.372 C 33.276 20.545,31.903 21.527,32.617 20.373 C 32.762 20.138,32.538 19.857,32.120 19.747 C 31.702 19.638,31.131 19.181,30.851 18.732 C 30.432 18.062,30.435 17.972,30.870 18.227 C 31.162 18.398,31.074 18.165,30.676 17.710 C 30.118 17.073,30.072 16.835,30.476 16.673 C 30.865 16.517,30.871 16.455,30.503 16.432 C 29.148 16.346,25.656 22.888,24.368 27.927 C 19.227 48.027,34.097 67.232,54.800 67.232 C 74.826 67.232,89.115 49.859,85.623 29.757 C 84.758 24.778,79.952 15.088,78.724 15.847 C 78.457 16.012,78.484 16.205,78.800 16.400 C 79.147 16.614,79.159 16.778,78.843 16.974 C 78.599 17.124,78.397 17.642,78.393 18.124 C 78.389 18.606,77.973 19.391,77.468 19.870 L 76.550 20.739 73.175 17.470 C 66.137 10.653,57.251 8.111,48.488 10.407 M223.148 14.143 C 235.556 17.667,240.814 33.960,233.998 47.766 C 232.509 50.781,232.349 51.600,233.247 51.600 C 233.467 51.600,233.539 51.425,233.407 51.212 C 233.276 50.999,233.914 51.087,234.826 51.409 C 235.739 51.731,236.634 51.903,236.815 51.791 C 237.784 51.192,237.480 52.638,236.328 54.107 C 231.460 60.313,225.807 62.165,212.447 61.930 C 205.463 61.808,204.907 61.742,203.500 60.867 C 202.002 59.936,201.555 59.249,202.500 59.333 C 202.775 59.357,203.990 58.887,205.200 58.289 L 207.400 57.200 207.390 35.700 C 207.384 22.001,207.526 14.001,207.781 13.651 C 208.329 12.897,220.085 13.273,223.148 14.143 M58.849 15.375 C 72.586 18.287,79.271 33.547,72.396 46.300 C 70.839 49.189,70.851 49.513,72.507 49.245 C 72.676 49.218,73.460 49.465,74.250 49.795 C 75.039 50.125,75.846 50.295,76.042 50.174 C 77.196 49.461,74.886 52.480,72.095 55.334 C 62.579 65.063,42.905 63.750,35.084 52.864 L 33.607 50.808 35.052 50.204 C 36.766 49.488,37.347 49.438,36.975 50.040 C 36.814 50.301,37.089 50.266,37.652 49.955 C 38.173 49.666,38.737 49.469,38.905 49.517 C 39.073 49.564,38.590 48.658,37.831 47.502 C 27.781 32.192,41.227 11.640,58.849 15.375 M146.503 17.659 C 146.866 18.551,149.950 26.447,157.025 44.600 C 164.278 63.209,164.623 64.480,163.482 68.373 L 162.874 70.445 165.037 71.506 C 167.500 72.714,167.528 72.774,166.287 74.217 C 165.418 75.227,165.141 75.290,160.652 75.493 L 155.931 75.706 153.643 73.442 C 152.385 72.197,151.230 71.303,151.077 71.456 C 150.366 72.168,150.782 79.562,151.557 79.977 C 152.549 80.508,169.014 80.346,169.559 79.800 C 169.877 79.481,178.358 57.165,192.019 20.700 C 193.399 17.014,193.491 17.052,189.652 19.726 C 187.974 20.896,186.395 21.974,186.145 22.122 C 185.877 22.281,185.008 21.488,184.032 20.196 C 181.893 17.363,181.884 17.367,180.477 21.561 C 177.575 30.215,170.245 50.400,170.004 50.400 C 169.785 50.400,164.728 36.893,159.185 21.500 C 158.492 19.575,157.762 18.000,157.565 18.000 C 157.240 18.000,155.216 20.548,154.415 21.964 C 154.167 22.404,153.236 21.933,150.190 19.824 C 148.041 18.336,146.382 17.362,146.503 17.659 M89.479 17.855 C 88.885 18.449,89.157 65.866,89.757 66.365 C 90.126 66.671,91.850 66.789,94.857 66.714 L 99.400 66.600 99.600 46.800 L 99.800 27.000 109.600 27.000 L 119.400 27.000 119.504 46.132 C 119.583 60.710,119.726 65.383,120.104 65.760 C 120.745 66.400,122.400 66.834,122.400 66.363 C 122.400 66.163,122.591 66.000,122.824 66.000 C 123.057 66.000,123.155 66.149,123.042 66.331 C 122.930 66.514,124.404 66.649,126.319 66.631 L 129.800 66.600 129.903 42.300 C 129.960 28.935,129.874 18.000,129.713 18.000 C 129.552 18.000,128.236 19.175,126.790 20.610 L 124.159 23.221 122.380 22.511 C 119.861 21.508,99.511 21.483,97.000 22.481 L 95.400 23.117 92.579 20.346 C 91.027 18.823,89.632 17.702,89.479 17.855 M252.000 41.512 C 252.000 65.905,252.082 67.332,253.370 65.248 C 253.721 64.681,255.176 64.438,255.461 64.899 C 255.616 65.149,255.533 65.206,255.262 65.038 C 255.008 64.881,254.800 64.943,254.800 65.176 C 254.800 65.409,255.166 65.600,255.613 65.600 C 256.059 65.600,256.524 65.859,256.646 66.175 C 256.833 66.663,259.444 66.756,273.664 66.787 C 286.049 66.814,290.388 66.705,290.183 66.372 C 289.977 66.040,290.118 66.035,290.712 66.353 C 291.349 66.694,291.570 66.654,291.757 66.167 C 291.888 65.827,292.176 65.661,292.397 65.798 C 292.882 66.098,292.959 18.869,292.475 18.107 C 292.256 17.764,291.441 18.341,289.792 20.008 L 287.423 22.402 284.919 19.920 L 282.415 17.438 282.307 37.320 L 282.200 57.201 284.400 58.273 C 285.610 58.863,286.717 59.319,286.859 59.286 C 287.889 59.052,286.399 60.874,285.152 61.372 C 282.621 62.385,261.138 62.295,259.215 61.264 C 257.220 60.194,257.310 59.866,259.987 58.439 L 262.400 57.153 262.400 37.643 C 262.400 26.913,262.293 18.026,262.163 17.896 C 262.032 17.765,260.874 18.770,259.589 20.129 L 257.253 22.600 254.626 20.012 L 252.000 17.423 252.000 41.512 M366.394 19.806 L 364.227 22.000 358.163 22.000 C 353.215 22.000,352.005 21.888,351.592 21.390 C 351.138 20.843,351.015 20.843,350.411 21.390 C 349.907 21.846,348.783 22.000,345.953 22.000 L 342.170 22.000 340.200 20.000 C 337.575 17.335,337.556 17.352,337.686 22.300 L 337.800 26.600 341.586 26.716 C 343.997 26.790,345.484 27.008,345.679 27.316 C 345.848 27.582,345.985 34.640,345.985 43.000 C 345.984 55.551,346.091 58.563,346.602 60.282 C 349.834 71.165,365.110 70.310,371.123 58.910 C 372.909 55.524,374.943 49.522,373.600 51.600 C 373.269 52.113,373.211 52.098,373.206 51.500 C 373.203 51.100,373.500 50.797,373.900 50.794 C 374.348 50.790,374.435 50.682,374.142 50.494 C 373.804 50.277,373.871 49.307,374.398 46.800 C 375.489 41.608,375.705 38.926,375.053 38.676 C 374.641 38.518,374.448 39.116,374.259 41.133 C 373.895 45.012,372.579 49.376,370.740 52.797 C 369.411 55.268,369.209 55.923,369.588 56.529 C 369.963 57.130,369.861 57.507,369.024 58.604 C 365.083 63.771,356.617 64.957,353.304 60.806 L 352.408 59.684 354.975 58.566 L 357.542 57.447 356.966 56.334 C 356.490 55.414,356.408 52.760,356.495 41.110 L 356.600 27.000 361.800 26.902 C 367.434 26.796,368.965 26.591,368.593 25.988 C 368.461 25.775,368.543 25.600,368.776 25.600 C 369.273 25.600,369.361 18.872,368.874 18.106 C 368.655 17.761,367.909 18.272,366.394 19.806 M310.410 21.441 C 307.800 22.142,305.426 23.480,303.851 25.137 C 302.629 26.422,301.200 26.222,301.200 24.766 C 301.200 22.955,299.703 22.661,298.645 24.264 C 294.984 29.810,295.123 37.182,298.961 41.005 C 301.567 43.601,303.039 44.060,313.719 45.611 C 323.228 46.992,325.770 47.705,326.967 49.330 C 327.920 50.622,328.052 53.574,327.203 54.597 C 326.693 55.211,327.531 56.348,328.524 56.387 C 328.702 56.394,328.736 56.580,328.600 56.800 C 328.464 57.020,328.522 57.200,328.730 57.200 C 329.896 57.200,329.545 59.055,328.145 60.293 C 322.832 64.991,308.794 64.512,304.568 59.489 C 303.622 58.365,303.300 57.501,303.900 57.699 C 304.065 57.753,304.855 57.274,305.655 56.635 L 307.110 55.472 306.216 53.791 C 305.724 52.867,305.202 51.681,305.055 51.155 L 304.788 50.200 303.894 51.207 C 303.402 51.761,302.626 52.729,302.168 53.358 C 301.198 54.692,300.898 54.601,297.790 52.032 C 295.482 50.125,295.101 50.299,295.673 53.000 C 296.579 57.284,301.946 65.387,303.108 64.225 C 303.211 64.122,303.557 64.300,303.876 64.619 C 304.196 64.939,304.795 65.200,305.209 65.200 C 305.622 65.200,306.136 65.514,306.350 65.897 C 306.565 66.280,306.866 66.467,307.021 66.313 C 307.175 66.158,307.802 66.291,308.415 66.608 C 311.284 68.091,320.248 68.246,324.648 66.888 C 335.099 63.661,340.425 53.255,335.727 45.239 L 334.684 43.460 333.242 45.136 C 331.491 47.172,331.544 47.170,329.360 45.248 C 327.339 43.470,325.221 42.829,318.000 41.811 C 305.793 40.091,304.512 39.749,302.614 37.702 L 301.602 36.611 303.777 35.511 C 305.878 34.449,305.944 34.365,305.730 33.049 C 304.180 23.498,321.763 22.202,326.269 31.536 C 327.674 34.446,327.556 34.387,331.909 34.394 C 335.490 34.400,335.633 34.365,336.078 33.389 C 336.748 31.917,334.280 24.715,332.790 23.794 C 332.336 23.513,331.039 24.372,331.389 24.722 C 331.503 24.837,331.042 25.268,330.364 25.680 L 329.131 26.430 327.665 25.108 C 323.334 21.200,316.618 19.773,310.410 21.441 M172.426 53.213 C 174.357 54.198,174.365 54.394,172.553 56.399 C 170.983 58.137,170.105 58.350,168.593 57.359 C 167.655 56.744,165.752 54.098,166.054 53.828 C 166.134 53.757,166.965 53.313,167.900 52.841 C 168.898 52.338,169.600 51.703,169.600 51.303 C 169.600 50.753,169.720 50.794,170.226 51.516 C 170.571 52.008,171.561 52.772,172.426 53.213 " stroke="none" fill="#ffffff" fill-rule="evenodd"></path></g></svg>