<svg id="svg" version="1.1" xmlns="http://www.w3.org/2000/svg" xmlns:xlink="http://www.w3.org/1999/xlink" width="400" height="80" viewBox="0, 0, 400,80"><g id="svgg"><path id="path0" d="M32.038 0.544 C 3.339 6.174,-9.773 40.695,7.919 64.048 C 30.943 94.441,79.447 78.186,79.677 40.000 C 79.831 14.591,56.965 -4.347,32.038 0.544 M125.960 16.505 C 119.284 17.635,115.035 22.345,115.011 28.641 C 114.986 35.309,118.446 38.854,128.780 42.743 C 135.958 45.445,138.500 47.539,138.500 50.750 C 138.500 59.152,122.735 59.261,120.468 50.875 L 119.961 49.000 116.762 49.000 L 113.563 49.000 113.817 50.875 C 116.114 67.813,144.974 67.650,144.997 50.700 C 145.005 44.648,141.611 41.039,132.750 37.678 C 123.940 34.337,121.500 32.401,121.500 28.750 C 121.500 20.658,135.336 20.212,136.981 28.250 C 137.281 29.719,137.357 29.753,140.671 29.898 L 144.054 30.047 143.735 28.148 C 142.617 21.498,138.912 17.742,132.283 16.539 C 129.038 15.950,129.237 15.951,125.960 16.505 M59.968 19.593 C 60.455 21.120,60.915 21.555,62.653 22.134 C 65.135 22.962,65.292 23.492,63.250 24.149 C 61.078 24.846,60.143 25.832,59.771 27.815 C 59.353 30.041,58.506 29.768,57.625 27.125 C 57.050 25.399,56.616 24.955,54.969 24.406 C 52.476 23.575,52.477 22.924,54.972 22.093 C 56.574 21.559,57.055 21.090,57.538 19.593 C 57.864 18.579,58.240 17.562,58.372 17.331 C 58.731 16.708,59.307 17.525,59.968 19.593 M149.000 20.500 L 149.000 23.500 155.000 23.500 L 161.000 23.500 161.000 43.000 L 161.000 62.500 164.000 62.500 L 167.000 62.500 167.000 43.000 L 167.000 23.500 173.000 23.500 L 179.000 23.500 179.000 20.500 L 179.000 17.500 164.000 17.500 L 149.000 17.500 149.000 20.500 M186.772 37.625 C 182.697 48.694,178.943 58.829,178.430 60.147 L 177.497 62.544 181.026 62.397 L 184.555 62.250 185.765 59.270 C 188.818 51.746,195.654 46.526,202.722 46.322 L 205.194 46.250 208.075 54.186 C 211.494 63.606,210.675 62.581,214.644 62.399 L 217.906 62.250 212.548 47.750 C 209.601 39.775,205.882 29.706,204.284 25.375 L 201.379 17.500 197.779 17.500 L 194.180 17.500 186.772 37.625 M222.000 39.964 L 222.000 62.500 225.250 62.500 L 228.500 62.500 228.500 54.250 L 228.500 46.000 229.981 46.000 C 235.660 46.000,242.828 51.709,247.716 60.125 L 249.095 62.500 252.555 62.500 L 256.014 62.500 254.439 59.375 C 252.069 54.675,249.165 50.603,245.703 47.125 C 243.642 45.054,242.881 44.000,243.448 44.000 C 249.660 44.000,254.590 32.925,251.462 26.000 C 248.367 19.148,245.283 17.789,232.375 17.589 L 222.000 17.428 222.000 39.964 M263.000 40.000 L 263.000 62.500 266.000 62.500 L 269.000 62.500 269.000 51.985 L 269.000 41.469 278.375 51.947 L 287.750 62.424 291.936 62.462 L 296.123 62.500 292.415 58.375 C 281.127 45.818,276.000 39.935,276.000 39.538 C 276.000 39.293,280.275 34.367,285.500 28.591 C 290.725 22.815,295.000 17.957,295.000 17.795 C 295.000 17.633,293.256 17.514,291.125 17.531 L 287.250 17.562 278.250 27.385 L 269.250 37.207 269.114 27.353 L 268.979 17.500 265.989 17.500 L 263.000 17.500 263.000 40.000 M300.000 40.000 L 300.000 62.500 304.742 62.500 L 309.483 62.500 309.617 49.446 L 309.750 36.392 317.938 49.446 L 326.126 62.500 329.813 62.500 L 333.500 62.500 333.500 40.000 L 333.500 17.500 328.758 17.500 L 324.017 17.500 323.883 30.625 L 323.750 43.750 315.500 30.634 L 307.250 17.519 303.625 17.509 L 300.000 17.500 300.000 40.000 M338.500 40.000 L 338.500 62.500 352.000 62.500 L 365.500 62.500 365.500 58.250 L 365.500 54.000 356.500 54.000 L 347.500 54.000 347.500 49.000 L 347.500 44.000 355.500 44.000 L 363.500 44.000 363.500 39.750 L 363.500 35.500 355.500 35.500 L 347.500 35.500 347.500 31.000 L 347.500 26.500 356.250 26.500 L 365.000 26.500 365.000 22.000 L 365.000 17.500 351.750 17.500 L 338.500 17.500 338.500 40.000 M369.500 22.000 L 369.500 26.500 374.750 26.500 L 380.000 26.500 380.000 44.500 L 380.000 62.500 384.750 62.500 L 389.500 62.500 389.500 44.500 L 389.500 26.500 394.750 26.500 L 400.000 26.500 400.000 22.000 L 400.000 17.500 384.750 17.500 L 369.500 17.500 369.500 22.000 M30.813 23.541 C 34.781 24.835,38.207 26.927,44.271 31.754 C 58.195 42.839,61.033 43.629,71.162 39.239 C 75.805 37.227,75.500 37.301,75.500 38.197 C 75.500 42.050,71.651 49.067,67.918 52.017 C 57.564 60.202,44.495 56.864,28.147 41.860 C 20.635 34.965,16.100 33.984,7.849 37.468 C 3.299 39.389,3.282 39.383,4.203 36.323 C 7.526 25.282,19.104 19.721,30.813 23.541 M242.340 24.796 C 246.005 27.515,247.136 32.294,244.952 35.828 C 243.235 38.606,241.545 39.192,234.625 39.410 L 228.500 39.603 228.500 31.511 L 228.500 23.418 234.715 23.584 C 240.081 23.727,241.123 23.893,242.340 24.796 M200.204 32.228 C 202.827 39.538,202.825 39.758,200.146 40.117 C 199.079 40.260,196.764 40.960,195.002 41.671 C 191.049 43.268,191.090 44.221,194.678 34.163 C 196.363 29.439,197.773 25.614,197.811 25.663 C 197.849 25.711,198.926 28.665,200.204 32.228 M18.533 58.018 C 20.450 59.043,19.436 62.000,17.168 62.000 C 14.501 62.000,14.705 58.215,17.408 57.539 C 17.495 57.518,18.001 57.733,18.533 58.018 " stroke="none" fill="#ffffff" fill-rule="evenodd"></path></g></svg>